<svg width="24" height="24" xmlns="http://www.w3.org/2000/svg">

 <g>
  <title>background</title>
  <rect fill="none" id="canvas_background" height="402" width="582" y="-1" x="-1"/>
 </g>
 <g>
  <title>Layer 1</title>
  <path fill="#ffffff" id="svg_1" d="m2,22l0,-15a1,1 0 0 1 1,-1l4,0l0,-4l10,0l0,4l4,0a1,1 0 0 1 1,1l0,15l-8,0l0,-5l-4,0l0,5l-8,0m7,-18l0,6l2,0l0,-2l2,0l0,2l2,0l0,-6l-2,0l0,2l-2,0l0,-2l-2,0m-5,16l4,0l0,-3l-4,0l0,3m0,-5l4,0l0,-3l-4,0l0,3m12,5l4,0l0,-3l-4,0l0,3m0,-5l4,0l0,-3l-4,0l0,3m-6,0l4,0l0,-3l-4,0l0,3z"/>
 </g>
</svg>