<svg width="24" height="24" xmlns="http://www.w3.org/2000/svg">

 <g>
  <title>background</title>
  <rect fill="none" id="canvas_background" height="402" width="582" y="-1" x="-1"/>
 </g>
 <g>
  <title>Layer 1</title>
  <path fill="#ffffff" id="svg_1" d="m19,8c0.56,0 1,0.43 1,1a1,1 0 0 1 -1,1c-0.57,0 -1,-0.45 -1,-1c0,-0.57 0.43,-1 1,-1m-17,-6l0,9c0,2.96 2.19,5.5 5.14,5.91c0.62,3.01 3.28,5.09 6.36,5.09a6.5,6.5 0 0 0 6.5,-6.5l0,-3.69c1.16,-0.42 2,-1.52 2,-2.81a3,3 0 0 0 -3,-3a3,3 0 0 0 -3,3c0,1.29 0.84,2.4 2,2.81l0,3.6c0,2.5 -2,4.5 -4.5,4.5c-2,0 -3.68,-1.21 -4.28,-3.01c2.78,-0.6 4.78,-3.1 4.78,-5.9l0,-9l-4,0l0,3l2,0l0,6a4,4 0 0 1 -4,4a4,4 0 0 1 -4,-4l0,-6l2,0l0,-3l-4,0z"/>
 </g>
</svg>